<?xml version="1.0" encoding="UTF-8" standalone="no"?>
<!-- Created with Inkscape (http://www.inkscape.org/) -->

<svg
   width="105.83333mm"
   height="105.83333mm"
   viewBox="0 0 105.8333 105.83333"
   version="1.1"
   id="svg3751"
   inkscape:export-filename="./gitlab-avatar.png"
   inkscape:export-xdpi="30.720003"
   inkscape:export-ydpi="30.720003"
   inkscape:version="1.2.2 (1:1.2.2+202212051552+b0a8486541)"
   sodipodi:docname="gitlab-avatar.svg"
   xml:space="preserve"
   xmlns:inkscape="http://www.inkscape.org/namespaces/inkscape"
   xmlns:sodipodi="http://sodipodi.sourceforge.net/DTD/sodipodi-0.dtd"
   xmlns="http://www.w3.org/2000/svg"
   xmlns:svg="http://www.w3.org/2000/svg"
   xmlns:rdf="http://www.w3.org/1999/02/22-rdf-syntax-ns#"
   xmlns:cc="http://creativecommons.org/ns#"
   xmlns:dc="http://purl.org/dc/elements/1.1/"><title
     id="title4527">Asciidoctor</title><defs
     id="defs3745"><clipPath
       id="clipPath8"><path
         d="m 76,2 0,46 -22,0 0,23 -18.419263,0 c -0.07818,0.665694 -0.141485,1.332869 -0.205737,2 -1.151162,12.530963 1.036422,24.087546 6.0625,33.96875 L 43.125,110 c 1.011403,1.81678 2.191241,3.52297 3.4375,5.1875 1.244725,1.66248 1.685716,2.58262 2.46875,3.6875 C 62.319911,133.81083 82.129473,141 105,141 155.64836,141 198.63299,118.56201 217.65625,68.15625 231.15302,69.54122 244.09968,66.080358 250,54.5625 240.60137,49.138835 228.52163,50.877226 221.5625,54.375 L 240,2 168,48 145,48 145,2 z"
         id="path10" /></clipPath></defs><sodipodi:namedview
     id="base"
     pagecolor="#ffffff"
     bordercolor="#666666"
     borderopacity="1.0"
     inkscape:pageopacity="0.0"
     inkscape:pageshadow="2"
     inkscape:zoom="0.8122524"
     inkscape:cx="99.722697"
     inkscape:cy="395.19735"
     inkscape:document-units="mm"
     inkscape:current-layer="layer1"
     showgrid="false"
     fit-margin-top="0"
     fit-margin-left="0"
     fit-margin-right="0"
     fit-margin-bottom="0"
     inkscape:window-width="2560"
     inkscape:window-height="1403"
     inkscape:window-x="2560"
     inkscape:window-y="0"
     inkscape:window-maximized="1"
     inkscape:showpageshadow="2"
     inkscape:pagecheckerboard="0"
     inkscape:deskcolor="#d1d1d1" /><metadata
     id="metadata3748"><rdf:RDF><cc:Work
         rdf:about=""><dc:format>image/svg+xml</dc:format><dc:type
           rdf:resource="http://purl.org/dc/dcmitype/StillImage" /><dc:title>Asciidoctor</dc:title><dc:publisher><cc:Agent><dc:title>Asciidoctor</dc:title></cc:Agent></dc:publisher><dc:description>Asciidoctor project logo.</dc:description><dc:subject><rdf:Bag><rdf:li>AsciiDoc</rdf:li></rdf:Bag></dc:subject><dc:relation>https://asciidoctor.org</dc:relation></cc:Work></rdf:RDF></metadata><g
     inkscape:label="Layer 1"
     inkscape:groupmode="layer"
     id="layer1"
     transform="translate(0,-191.16667)"><path
       inkscape:connector-curvature="0"
       id="path907"
       d="M 26.157411,191.16667 C 11.720709,191.16667 0,202.88678 0,217.32334 v 53.51951 C 0,285.27939 11.720957,297 26.157411,297 h 53.519504 c 14.436679,0 26.156415,-11.72061 26.156415,-26.15715 v -53.51951 c 0,-14.43656 -11.719493,-26.15667 -26.156415,-26.15667 z"
       style="clip-rule:evenodd;fill:#ffffff;fill-opacity:1;fill-rule:evenodd;stroke-width:0.24752024;stroke-linejoin:round;stroke-miterlimit:1.41420996" /><g
       id="g6061"><path
         style="fill:#191919;fill-opacity:1;fill-rule:evenodd;stroke:#191919;stroke-width:1.5875;stroke-linecap:round;stroke-linejoin:round;stroke-miterlimit:1.5;stroke-dasharray:none;stroke-dashoffset:0;stroke-opacity:1"
         d="m 55.626085,202.63125 a 2.2302684,2.2302684 0 0 0 -2.015517,1.37262 l -13.327365,32.05566 a 2.2302684,2.2302684 0 1 0 4.117839,1.7117 l 11.25217,-27.06706 23.600261,57.54395 a 2.2302684,2.2302684 0 1 0 4.125976,-1.69271 L 57.73112,204.01471 a 2.2302684,2.2302684 0 0 0 -2.105035,-1.38346 z"
         id="path909"
         inkscape:connector-curvature="0" /><path
         inkscape:connector-curvature="0"
         id="path911"
         d="m 36.733854,248.09993 a 2.2302685,2.2302685 0 0 0 -2.024151,1.40272 l -7.083967,17.04249 a 2.2302685,2.2302685 0 1 0 4.118502,1.71234 l 7.083967,-17.0425 a 2.2302685,2.2302685 0 0 0 -2.094351,-3.11505 z"
         style="fill:#191919;fill-opacity:1;fill-rule:nonzero;stroke:#191919;stroke-width:1.5875;stroke-linecap:butt;stroke-linejoin:miter;stroke-miterlimit:1.5;stroke-dasharray:none;stroke-dashoffset:0;stroke-opacity:1" /><path
         style="fill:#e40046;fill-opacity:1;fill-rule:evenodd;stroke:#e40046;stroke-width:1.5875;stroke-linecap:round;stroke-linejoin:round;stroke-miterlimit:1.5;stroke-dasharray:none;stroke-dashoffset:0;stroke-opacity:1"
         d="m 21.465386,247.75426 a 2.2302685,2.2302685 0 1 0 0,4.45964 H 47.21951 a 2.2302685,2.2302685 0 1 0 0,-4.45964 z"
         id="path915"
         inkscape:connector-curvature="0" /><path
         style="fill:#e40046;fill-opacity:1;fill-rule:evenodd;stroke:#e40046;stroke-width:1.5875;stroke-linecap:round;stroke-linejoin:round;stroke-miterlimit:1.5;stroke-dasharray:none;stroke-dashoffset:0;stroke-opacity:1"
         d="m 26.180013,236.10837 a 2.2302685,2.2302685 0 1 0 0,4.45962 h 25.751411 a 2.2302685,2.2302685 0 1 0 0,-4.45962 z"
         id="path919"
         inkscape:connector-curvature="0" /></g><path
       id="path5989"
       style="color:#000000;fill:#000000;stroke-width:0.605862;stroke-linecap:round;stroke-linejoin:round;-inkscape-stroke:none"
       d="m 52.936425,262.5512 c -0.06643,3.6e-4 -0.120472,0.054 -0.120822,0.12042 v 3.68647 c -3.34e-4,0.0669 0.05391,0.12126 0.120822,0.12161 h 3.685662 c 0.06703,-1.8e-4 0.121555,-0.0546 0.121221,-0.12161 v -3.68647 c -3.51e-4,-0.0665 -0.05468,-0.12024 -0.121221,-0.12042 z m 0.567025,0.57101 c 0.06468,-10e-6 0.117246,0.0525 0.117232,0.11723 v 2.55201 c 1.4e-5,0.0647 -0.05255,0.11725 -0.117232,0.11724 -0.0648,1.8e-4 -0.117247,-0.0525 -0.117233,-0.11724 v -2.55201 c -1.4e-5,-0.0648 0.05243,-0.11741 0.117233,-0.11723 z m 0.637604,0 c 0.06468,-10e-6 0.117246,0.0525 0.117232,0.11723 v 2.55201 c 1.4e-5,0.0647 -0.05255,0.11725 -0.117232,0.11724 -0.06468,1e-5 -0.116848,-0.0525 -0.116834,-0.11724 v -2.55201 c -1.4e-5,-0.0647 0.05215,-0.11724 0.116834,-0.11723 z m 0.639199,0 c 0.06468,-10e-6 0.117247,0.0525 0.117233,0.11723 v 2.55201 c 1.4e-5,0.0647 -0.05256,0.11725 -0.117233,0.11724 -0.06468,1e-5 -0.117247,-0.0525 -0.117233,-0.11724 v -2.55201 c -1.4e-5,-0.0647 0.05256,-0.11724 0.117233,-0.11723 z m 0.637604,0 c 0.06468,-10e-6 0.117247,0.0525 0.117233,0.11723 v 2.55201 c 1.4e-5,0.0647 -0.05256,0.11725 -0.117233,0.11724 -0.06468,1e-5 -0.116848,-0.0525 -0.116834,-0.11724 v -2.55201 c -1.4e-5,-0.0647 0.05215,-0.11724 0.116834,-0.11723 z m 0.638003,0 c 0.06467,-10e-6 0.116848,0.0525 0.116834,0.11723 v 2.55201 c 1.4e-5,0.0647 -0.05216,0.11725 -0.116834,0.11724 -0.06468,1e-5 -0.117247,-0.0525 -0.117233,-0.11724 v -2.55201 c -1.4e-5,-0.0647 0.05255,-0.11724 0.117233,-0.11723 z m 11.268726,2.64772 c -0.03826,0.004 -0.07499,0.0214 -0.10208,0.0526 l -0.491263,0.56663 c -1.031268,1.19255 -1.319408,3.11953 -1.1819,4.60878 0.09538,1.0311 0.430227,2.06688 1.037154,2.92962 -0.456284,0.25929 -0.958203,0.48425 -1.415171,0.6392 -1.016564,0.34446 -2.12191,0.53632 -3.193603,0.53632 H 37.065305 c -0.08476,3.4e-4 -0.153182,0.0692 -0.153519,0.15392 0,6.20525 2.069489,10.12526 4.997556,12.47694 2.928059,2.35168 6.695203,3.13499 10.084034,3.13499 6.780755,0 13.828715,-4.79617 17.893589,-14.83755 2.703428,0.11642 5.484937,-0.70481 6.822644,-3.31562 l 0.337344,-0.65834 c 0.03808,-0.0735 0.01157,-0.16384 -0.06021,-0.20496 l -0.640395,-0.36924 c -1.568657,-0.90535 -3.615692,-1.01934 -5.395511,-0.53194 -0.272624,-1.87435 -1.477324,-3.51008 -2.931225,-4.67815 l -0.58457,-0.47014 c -0.03233,-0.0257 -0.07219,-0.0367 -0.110454,-0.0331 z m -22.7779,0.97574 c -0.06643,3.6e-4 -0.120471,0.054 -0.120821,0.12042 v 3.68646 c -3.34e-4,0.0669 0.05391,0.12127 0.120821,0.12162 h 3.685663 c 0.06703,-1.8e-4 0.121554,-0.0545 0.121221,-0.12162 v -3.68646 c -3.51e-4,-0.0665 -0.05468,-0.12024 -0.121221,-0.12042 z m 4.194869,0 c -0.06643,3.6e-4 -0.120471,0.054 -0.120822,0.12042 v 3.68646 c -3.33e-4,0.0669 0.05391,0.12127 0.120822,0.12162 h 3.685664 c 0.06703,-1.8e-4 0.121553,-0.0545 0.12122,-0.12162 v -3.68646 c -3.51e-4,-0.0665 -0.05468,-0.12024 -0.12122,-0.12042 z m 4.194471,0 c -0.06643,3.6e-4 -0.120472,0.054 -0.120822,0.12042 v 3.68646 c -3.34e-4,0.0669 0.05391,0.12127 0.120822,0.12162 h 3.685663 c 0.06703,-1.8e-4 0.121554,-0.0545 0.12122,-0.12162 v -3.68646 c -3.51e-4,-0.0665 -0.05468,-0.12024 -0.12122,-0.12042 z m -7.822315,0.57102 c 0.06468,-2e-5 0.117247,0.0525 0.117234,0.11723 v 2.55201 c 1.3e-5,0.0647 -0.05256,0.11725 -0.117234,0.11723 -0.0648,1.9e-4 -0.117246,-0.0525 -0.117232,-0.11723 v -2.55201 c -1.4e-5,-0.0648 0.05243,-0.11742 0.117232,-0.11723 z m 0.637604,0 c 0.06468,-2e-5 0.117247,0.0525 0.117234,0.11723 v 2.55201 c 1.3e-5,0.0647 -0.05256,0.11725 -0.117234,0.11723 -0.06468,2e-5 -0.116848,-0.0525 -0.116834,-0.11723 v -2.55201 c -1.4e-5,-0.0647 0.05215,-0.11725 0.116834,-0.11723 z m 0.6392,0 c 0.06468,-2e-5 0.117246,0.0525 0.117233,0.11723 v 2.55201 c 1.3e-5,0.0647 -0.05256,0.11725 -0.117233,0.11723 -0.06468,2e-5 -0.117247,-0.0525 -0.117233,-0.11723 v -2.55201 c -1.4e-5,-0.0647 0.05256,-0.11725 0.117233,-0.11723 z m 0.637604,0 c 0.06468,-2e-5 0.117246,0.0525 0.117233,0.11723 v 2.55201 c 1.3e-5,0.0647 -0.05256,0.11725 -0.117233,0.11723 -0.06468,2e-5 -0.116848,-0.0525 -0.116834,-0.11723 v -2.55201 c -1.4e-5,-0.0647 0.05215,-0.11725 0.116834,-0.11723 z m 0.638003,0 c 0.06467,-10e-6 0.116848,0.0525 0.116834,0.11723 v 2.55201 c 1.4e-5,0.0647 -0.05216,0.11724 -0.116834,0.11723 -0.06468,2e-5 -0.117247,-0.0525 -0.117233,-0.11723 v -2.55201 c -1.4e-5,-0.0647 0.05256,-0.11725 0.117233,-0.11723 z m 1.642459,0 c 0.06468,-2e-5 0.117247,0.0525 0.117233,0.11723 v 2.55201 c 1.4e-5,0.0647 -0.05256,0.11725 -0.117233,0.11723 -0.0648,1.9e-4 -0.117248,-0.0525 -0.117234,-0.11723 v -2.55201 c -1.4e-5,-0.0648 0.05243,-0.11742 0.117234,-0.11723 z m 0.637604,0 c 0.06468,-2e-5 0.117247,0.0525 0.117233,0.11723 v 2.55201 c 1.4e-5,0.0647 -0.05256,0.11725 -0.117233,0.11723 -0.06468,2e-5 -0.116849,-0.0525 -0.116835,-0.11723 v -2.55201 c -1.4e-5,-0.0647 0.05216,-0.11725 0.116835,-0.11723 z m 0.639199,0 c 0.06468,-2e-5 0.117247,0.0525 0.117233,0.11723 v 2.55201 c 1.4e-5,0.0647 -0.05256,0.11725 -0.117233,0.11723 -0.06468,2e-5 -0.117247,-0.0525 -0.117233,-0.11723 v -2.55201 c -1.4e-5,-0.0647 0.05256,-0.11725 0.117233,-0.11723 z m 0.637604,0 c 0.06468,-2e-5 0.117247,0.0525 0.117233,0.11723 v 2.55201 c 1.4e-5,0.0647 -0.05256,0.11725 -0.117233,0.11723 -0.06468,2e-5 -0.116849,-0.0525 -0.116835,-0.11723 v -2.55201 c -1.4e-5,-0.0647 0.05215,-0.11725 0.116835,-0.11723 z m 0.638003,0 c 0.06467,-10e-6 0.116848,0.0525 0.116834,0.11723 v 2.55201 c 1.4e-5,0.0647 -0.05216,0.11724 -0.116834,0.11723 -0.06468,2e-5 -0.117247,-0.0525 -0.117233,-0.11723 v -2.55201 c -1.4e-5,-0.0647 0.05256,-0.11725 0.117233,-0.11723 z m 1.64206,0 c 0.06468,-2e-5 0.117247,0.0525 0.117233,0.11723 v 2.55201 c 1.4e-5,0.0647 -0.05256,0.11725 -0.117233,0.11723 -0.0648,1.9e-4 -0.117247,-0.0525 -0.117233,-0.11723 v -2.55201 c -1.4e-5,-0.0648 0.05243,-0.11742 0.117233,-0.11723 z m 0.637604,0 c 0.06468,-2e-5 0.117247,0.0525 0.117233,0.11723 v 2.55201 c 1.4e-5,0.0647 -0.05256,0.11725 -0.117233,0.11723 -0.06468,2e-5 -0.116848,-0.0525 -0.116834,-0.11723 v -2.55201 c -1.4e-5,-0.0647 0.05215,-0.11725 0.116834,-0.11723 z m 0.639199,0 c 0.06468,-2e-5 0.117247,0.0525 0.117233,0.11723 v 2.55201 c 1.4e-5,0.0647 -0.05256,0.11725 -0.117233,0.11723 -0.06468,2e-5 -0.117247,-0.0525 -0.117233,-0.11723 v -2.55201 c -1.4e-5,-0.0647 0.05256,-0.11725 0.117233,-0.11723 z m 0.637604,0 c 0.06468,-2e-5 0.117247,0.0525 0.117233,0.11723 v 2.55201 c 1.4e-5,0.0647 -0.05256,0.11725 -0.117233,0.11723 -0.06468,2e-5 -0.116848,-0.0525 -0.116834,-0.11723 v -2.55201 c -1.4e-5,-0.0647 0.05215,-0.11725 0.116834,-0.11723 z m 0.638003,0 c 0.06467,-10e-6 0.116848,0.0525 0.116834,0.11723 v 2.55201 c 1.4e-5,0.0647 -0.05216,0.11724 -0.116834,0.11723 -0.06468,2e-5 -0.117246,-0.0525 -0.117233,-0.11723 v -2.55201 c -1.3e-5,-0.0647 0.05256,-0.11725 0.117233,-0.11723 z m -15.692479,3.62346 c -0.06643,3.5e-4 -0.120472,0.054 -0.120822,0.12042 v 3.68645 c -3.33e-4,0.0669 0.05391,0.12127 0.120822,0.12163 h 3.685664 c 0.06703,-1.9e-4 0.121553,-0.0546 0.12122,-0.12163 v -3.68645 c -3.51e-4,-0.0665 -0.05468,-0.12025 -0.12122,-0.12042 z m 4.19487,0 c -0.06643,3.5e-4 -0.120472,0.054 -0.120823,0.12042 v 3.68645 c -3.33e-4,0.0669 0.05391,0.12127 0.120823,0.12163 h 3.685662 c 0.06703,-1.9e-4 0.121555,-0.0546 0.121221,-0.12163 v -3.68645 c -3.51e-4,-0.0665 -0.05468,-0.12025 -0.121221,-0.12042 z m 4.194868,0 c -0.06643,3.5e-4 -0.120471,0.054 -0.120821,0.12042 v 3.68645 c -3.34e-4,0.0669 0.05391,0.12127 0.120821,0.12163 h 3.685663 c 0.06703,-1.9e-4 0.121554,-0.0546 0.121221,-0.12163 v -3.68645 c -3.51e-4,-0.0665 -0.05468,-0.12025 -0.121221,-0.12042 z m 4.194869,0 c -0.06643,3.5e-4 -0.120471,0.054 -0.120821,0.12042 v 3.68645 c -3.33e-4,0.0669 0.05391,0.12127 0.120821,0.12163 h 3.685664 c 0.06703,-1.9e-4 0.121553,-0.0546 0.12122,-0.12163 v -3.68645 c -3.51e-4,-0.0665 -0.05468,-0.12025 -0.12122,-0.12042 z m 4.19487,0 c -0.06643,3.5e-4 -0.120472,0.054 -0.120822,0.12042 v 3.68645 c -3.34e-4,0.0669 0.05391,0.12127 0.120822,0.12163 h 3.685662 c 0.06703,-1.9e-4 0.121555,-0.0546 0.121221,-0.12163 v -3.68645 c -3.51e-4,-0.0665 -0.05468,-0.12025 -0.121221,-0.12042 z m -16.212452,0.571 c 0.06468,-10e-6 0.117248,0.0525 0.117234,0.11724 v 2.55201 c 1.4e-5,0.0647 -0.05256,0.11725 -0.117234,0.11723 -0.0648,1.9e-4 -0.117247,-0.0525 -0.117233,-0.11723 v -2.55201 c -1.4e-5,-0.0648 0.05243,-0.11742 0.117233,-0.11724 z m 0.637604,0 c 0.06468,-10e-6 0.117248,0.0525 0.117234,0.11724 v 2.55201 c 1.4e-5,0.0647 -0.05256,0.11725 -0.117234,0.11723 -0.06468,2e-5 -0.116848,-0.0525 -0.116834,-0.11723 v -2.55201 c -1.4e-5,-0.0647 0.05215,-0.11725 0.116834,-0.11724 z m 0.639199,0 c 0.06468,-10e-6 0.117248,0.0525 0.117234,0.11724 v 2.55201 c 1.4e-5,0.0647 -0.05256,0.11725 -0.117234,0.11723 -0.06468,2e-5 -0.117246,-0.0525 -0.117232,-0.11723 v -2.55201 c -1.4e-5,-0.0647 0.05256,-0.11725 0.117232,-0.11724 z m 0.637605,0 c 0.06468,-10e-6 0.117247,0.0525 0.117233,0.11724 v 2.55201 c 1.4e-5,0.0647 -0.05256,0.11725 -0.117233,0.11723 -0.06468,2e-5 -0.116848,-0.0525 -0.116834,-0.11723 v -2.55201 c -1.4e-5,-0.0647 0.05215,-0.11725 0.116834,-0.11724 z m 0.638002,0 c 0.06467,0 0.116849,0.0525 0.116835,0.11724 v 2.55201 c 1.4e-5,0.0647 -0.05216,0.11724 -0.116835,0.11723 -0.06468,2e-5 -0.117246,-0.0525 -0.117232,-0.11723 v -2.55201 c -1.4e-5,-0.0647 0.05256,-0.11725 0.117232,-0.11724 z m 1.64246,0 c 0.06468,-10e-6 0.117246,0.0525 0.117232,0.11724 v 2.55201 c 1.4e-5,0.0647 -0.05256,0.11725 -0.117232,0.11723 -0.0648,1.9e-4 -0.117247,-0.0525 -0.117233,-0.11723 v -2.55201 c -1.4e-5,-0.0648 0.05243,-0.11742 0.117233,-0.11724 z m 0.637604,0 c 0.06468,-10e-6 0.117246,0.0525 0.117232,0.11724 v 2.55201 c 1.4e-5,0.0647 -0.05256,0.11725 -0.117232,0.11723 -0.06468,2e-5 -0.116848,-0.0525 -0.116835,-0.11723 v -2.55201 c -1.3e-5,-0.0647 0.05215,-0.11725 0.116835,-0.11724 z m 0.639199,0 c 0.06468,-10e-6 0.117247,0.0525 0.117233,0.11724 v 2.55201 c 1.4e-5,0.0647 -0.05256,0.11725 -0.117233,0.11723 -0.06468,2e-5 -0.117247,-0.0525 -0.117233,-0.11723 v -2.55201 c -1.4e-5,-0.0647 0.05255,-0.11725 0.117233,-0.11724 z m 0.637604,0 c 0.06468,-10e-6 0.117247,0.0525 0.117233,0.11724 v 2.55201 c 1.4e-5,0.0647 -0.05256,0.11725 -0.117233,0.11723 -0.06468,2e-5 -0.116848,-0.0525 -0.116834,-0.11723 v -2.55201 c -1.4e-5,-0.0647 0.05215,-0.11725 0.116834,-0.11724 z m 0.638003,0 c 0.06467,0 0.116848,0.0525 0.116834,0.11724 v 2.55201 c 1.4e-5,0.0647 -0.05216,0.11724 -0.116834,0.11723 -0.06468,2e-5 -0.117247,-0.0525 -0.117233,-0.11723 v -2.55201 c -1.4e-5,-0.0647 0.05255,-0.11725 0.117233,-0.11724 z m 1.642458,0 c 0.06468,-10e-6 0.117247,0.0525 0.117234,0.11724 v 2.55201 c 1.3e-5,0.0647 -0.05256,0.11725 -0.117234,0.11723 -0.0648,1.9e-4 -0.117246,-0.0525 -0.117232,-0.11723 v -2.55201 c -1.4e-5,-0.0648 0.05243,-0.11742 0.117232,-0.11724 z m 0.637604,0 c 0.06468,-10e-6 0.117247,0.0525 0.117234,0.11724 v 2.55201 c 1.3e-5,0.0647 -0.05256,0.11725 -0.117234,0.11723 -0.06468,2e-5 -0.116847,-0.0525 -0.116833,-0.11723 v -2.55201 c -1.4e-5,-0.0647 0.05215,-0.11725 0.116833,-0.11724 z m 0.6392,0 c 0.06468,-10e-6 0.117246,0.0525 0.117233,0.11724 v 2.55201 c 1.3e-5,0.0647 -0.05256,0.11725 -0.117233,0.11723 -0.06468,2e-5 -0.117247,-0.0525 -0.117233,-0.11723 v -2.55201 c -1.4e-5,-0.0647 0.05256,-0.11725 0.117233,-0.11724 z m 0.637604,0 c 0.06468,-10e-6 0.117247,0.0525 0.117233,0.11724 v 2.55201 c 1.4e-5,0.0647 -0.05255,0.11725 -0.117233,0.11723 -0.06468,2e-5 -0.116848,-0.0525 -0.116834,-0.11723 v -2.55201 c -1.4e-5,-0.0647 0.05215,-0.11725 0.116834,-0.11724 z m 0.638003,0 c 0.06467,0 0.116848,0.0525 0.116834,0.11724 v 2.55201 c 1.4e-5,0.0647 -0.05216,0.11724 -0.116834,0.11723 -0.06468,2e-5 -0.117247,-0.0525 -0.117233,-0.11723 v -2.55201 c -1.4e-5,-0.0647 0.05256,-0.11725 0.117233,-0.11724 z m 1.642459,0 c 0.06468,-10e-6 0.117247,0.0525 0.117233,0.11724 v 2.55201 c 1.4e-5,0.0647 -0.05256,0.11725 -0.117233,0.11723 -0.0648,1.9e-4 -0.117248,-0.0525 -0.117234,-0.11723 v -2.55201 c -1.4e-5,-0.0648 0.05243,-0.11742 0.117234,-0.11724 z m 0.637604,0 c 0.06468,-10e-6 0.117247,0.0525 0.117233,0.11724 v 2.55201 c 1.4e-5,0.0647 -0.05256,0.11725 -0.117233,0.11723 -0.06468,2e-5 -0.116849,-0.0525 -0.116835,-0.11723 v -2.55201 c -1.4e-5,-0.0647 0.05215,-0.11725 0.116835,-0.11724 z m 0.639199,0 c 0.06468,-10e-6 0.117247,0.0525 0.117233,0.11724 v 2.55201 c 1.4e-5,0.0647 -0.05256,0.11725 -0.117233,0.11723 -0.06468,2e-5 -0.117247,-0.0525 -0.117233,-0.11723 v -2.55201 c -1.4e-5,-0.0647 0.05256,-0.11725 0.117233,-0.11724 z m 0.637604,0 c 0.06468,-10e-6 0.117247,0.0525 0.117233,0.11724 v 2.55201 c 1.4e-5,0.0647 -0.05256,0.11725 -0.117233,0.11723 -0.06468,2e-5 -0.116848,-0.0525 -0.116834,-0.11723 v -2.55201 c -1.4e-5,-0.0647 0.05215,-0.11725 0.116834,-0.11724 z m 0.638003,0 c 0.06467,0 0.116848,0.0525 0.116834,0.11724 v 2.55201 c 1.4e-5,0.0647 -0.05216,0.11724 -0.116834,0.11723 -0.06468,2e-5 -0.117247,-0.0525 -0.117233,-0.11723 v -2.55201 c -1.4e-5,-0.0647 0.05256,-0.11725 0.117233,-0.11724 z m 1.642459,0 c 0.06468,-10e-6 0.117246,0.0525 0.117232,0.11724 v 2.55201 c 1.4e-5,0.0647 -0.05255,0.11725 -0.117232,0.11723 -0.0648,1.9e-4 -0.117247,-0.0525 -0.117233,-0.11723 v -2.55201 c -1.4e-5,-0.0648 0.05243,-0.11742 0.117233,-0.11724 z m 0.637604,0 c 0.06468,-10e-6 0.117247,0.0525 0.117233,0.11724 v 2.55201 c 1.4e-5,0.0647 -0.05256,0.11725 -0.117233,0.11723 -0.06468,2e-5 -0.116848,-0.0525 -0.116834,-0.11723 v -2.55201 c -1.4e-5,-0.0647 0.05215,-0.11725 0.116834,-0.11724 z m 0.639199,0 c 0.06468,-10e-6 0.117247,0.0525 0.117233,0.11724 v 2.55201 c 1.4e-5,0.0647 -0.05256,0.11725 -0.117233,0.11723 -0.06468,2e-5 -0.117247,-0.0525 -0.117233,-0.11723 v -2.55201 c -1.4e-5,-0.0647 0.05256,-0.11725 0.117233,-0.11724 z m 0.637604,0 c 0.06468,-10e-6 0.117247,0.0525 0.117233,0.11724 v 2.55201 c 1.4e-5,0.0647 -0.05256,0.11725 -0.117233,0.11723 -0.06468,2e-5 -0.116848,-0.0525 -0.116834,-0.11723 v -2.55201 c -1.4e-5,-0.0647 0.05215,-0.11725 0.116834,-0.11724 z m 0.638003,0 c 0.06467,0 0.116848,0.0525 0.116834,0.11724 v 2.55201 c 1.4e-5,0.0647 -0.05216,0.11724 -0.116834,0.11723 -0.06468,2e-5 -0.117247,-0.0525 -0.117233,-0.11723 v -2.55201 c -1.4e-5,-0.0647 0.05256,-0.11725 0.117233,-0.11724 z m -14.280499,9.31564 h 3.99e-4 a 0.74382054,0.74382054 0 0 1 0.223301,0.0343 0.3683834,0.3683834 0 0 0 -0.101283,0.25361 0.3683834,0.3683834 0 0 0 0.368447,0.36805 0.3683834,0.3683834 0 0 0 0.233668,-0.0833 0.74382054,0.74382054 0 0 1 0.01954,0.17107 0.74382054,0.74382054 0 0 1 -0.744071,0.74367 0.74382054,0.74382054 0 0 1 -0.743672,-0.74367 0.74382054,0.74382054 0 0 1 0.743672,-0.74368 z" /></g></svg>
